<svg id="Layer_1" xmlns="http://www.w3.org/2000/svg" viewBox="0 0 216.2 49.4"><style>.st0{fill:#1579f3}.st1{fill:#333}</style><path class="st0" d="M52.8 0c-3.6.1-7 .3-9.9.7 0 0 7.6 1.4 10.5 8.2 5.2.2 9.8.6 12.2 1.4 1.7.6 3 1.4 4 2.6 1.5 2 2.4 6.7 2.5 11.5v.3c-.1 4.8-.9 9.7-2.5 11.8-1 1.1-2.3 2-4 2.6-2.4.8-7.3 1.2-12.7 1.4-5.4-.2-10.4-.6-12.8-1.4-1.7-.6-3-1.4-3.9-2.6-1.7-2.1-2.5-7-2.5-11.8v-.8c.1-4.6 1-9 2.5-11 .6-.7 1.4-1.4 2.4-1.9 0 0-2.8-.7-10.9-1-.5 1.1-.9 2.4-1.1 3.8-.6 3-1 6.6-1 10.2v.9c0 3.8.3 7.8 1 11 .6 3 1.6 5.4 3 7.2s3.3 3.2 5.7 4.2c3.5 1.4 10.3 2.2 17.6 2.3 1.5 0 3-.1 4.5-.2l6.2-5.8c.4-.4.8-.7 1.3-1s1-.6 1.6-.6c.6-.1 1.1-.1 1.5.2.3.2.6.4.9.7.2.2.3.6.4.8l1.2 3.5c2.4-1 4.3-2.3 5.8-4.2 1.4-1.8 2.4-4.2 3-7.2.6-3.2 1-7.1 1-11v-.2c-.1-3.8-.3-7.7-1-10.8-.6-3-1.7-5.4-3-7.2-1.4-1.8-3.4-3.2-5.8-4.2C66.8 1 60.1.2 52.8 0zM27.3 0c-1.5 0-3 .1-4.5.2L16.6 6c-.4.4-.8.7-1.3 1s-1 .6-1.6.6c-.6.1-1.1.1-1.5-.1s-.6-.5-.9-.7c-.1-.4-.3-.6-.3-1L9.8 2.3C7.4 3.3 5.4 4.6 4 6.5c-1.4 1.8-2.4 4.2-3 7.2s-.9 6.6-1 10.2v.9c0 3.8.3 7.8 1 11 .6 3 1.7 5.4 3 7.2 1.4 1.8 3.4 3.2 5.8 4.2 3.5 1.4 10.2 2.2 17.5 2.3 3.5-.1 7-.3 9.9-.7-.4-.1-7.7-1.6-10.4-8.2-5.3-.2-9.9-.6-12.2-1.4-1.8-.6-3-1.4-4-2.6-1.6-2.1-2.5-7-2.5-11.8V24c.2-4.6 1-9 2.5-11 1-1.1 2.2-2 4-2.6 2.3-.7 7.3-1.2 12.7-1.4 5.4.2 10.4.6 12.7 1.4 1.8.6 3 1.4 4 2.6 1.6 2 2.4 6.7 2.5 11.5v.3c0 4.8-.9 9.7-2.5 11.8-.6.7-1.4 1.4-2.4 1.9 0 0 2.8.7 10.9 1 .5-1.1.9-2.4 1.1-3.8.6-3.2 1-7.1 1-11v-.2c0-3.8-.3-7.7-1-10.8-.6-3-1.6-5.4-3-7.2s-3.4-3.2-5.8-4.2C41.3 1 34.6.2 27.3 0z"/><path class="st1" d="M92.8 32.7c.8.3 1.7.6 2.7.8.9.2 2.1.3 3.4.3 2.1 0 3.7-.4 4.7-1.3s1.6-2 1.6-3.5c0-.7-.1-1.3-.3-1.9-.2-.5-.5-1-1-1.3-.4-.4-1-.7-1.6-1-.7-.3-1.4-.6-2.3-1l-2.3-.8c-.7-.3-1.4-.6-2-1s-1.1-.8-1.6-1.4c-.5-.5-.8-1.2-1.1-1.9-.3-.7-.4-1.5-.4-2.5 0-2.3.8-4.2 2.4-5.5s3.8-2 6.7-2c1.2 0 2.4.1 3.5.3s2.1.5 2.9.8c-.1 1.1-.4 2.1-.8 3.2-.7-.3-1.5-.5-2.4-.7s-1.9-.3-3.1-.3c-1.6 0-2.9.3-3.7 1-.9.7-1.3 1.6-1.3 2.9 0 .5.1 1 .3 1.4.2.4.5.8.9 1.1.4.3.8.6 1.3.9s1 .5 1.5.7l2.2.8c1 .4 1.9.8 2.7 1.3.8.5 1.5 1 2 1.6.6.6 1 1.3 1.3 2.1.3.8.4 1.8.4 2.9 0 2.6-.9 4.7-2.7 6.3-1.8 1.5-4.4 2.3-7.7 2.3-.8 0-1.5 0-2.2-.1-.6-.1-1.2-.1-1.8-.2-.6-.1-1.1-.2-1.6-.4s-1-.3-1.6-.5c.1-.6.2-1.1.3-1.7.3-.5.5-1.1.7-1.7zM132.6 32.5c.7.3 1.5.5 2.3.7s1.7.2 2.5.2c.6 0 1.2-.1 1.7-.2s1-.3 1.4-.6.7-.6 1-.9c.2-.4.4-.8.4-1.3s-.1-.9-.3-1.3c-.2-.3-.5-.6-.8-.8-.3-.2-.7-.4-1.1-.6-.4-.2-.9-.3-1.4-.5l-1.4-.5c-1.6-.6-2.8-1.3-3.6-2.1-.7-.8-1.1-1.8-1.1-3.1 0-1.7.6-3.1 1.9-4.2 1.2-1 3.1-1.5 5.5-1.5 1 0 2 .1 2.9.3 1 .2 1.8.4 2.5.7-.1.5-.1 1-.3 1.5-.1.5-.3 1-.5 1.4-.6-.2-1.2-.4-2-.6s-1.6-.3-2.5-.3c-1 0-1.8.2-2.5.5s-1.1.9-1.1 1.8c0 .4.1.8.3 1.1.2.3.4.6.7.8.3.2.7.4 1.1.6.4.2.8.3 1.3.5l1.7.6c.6.2 1.2.4 1.8.7.6.3 1 .6 1.4 1.1.4.4.7.9 1 1.5.2.6.4 1.3.4 2.2 0 1-.2 1.8-.6 2.6-.4.8-.9 1.5-1.6 2-.7.6-1.6 1-2.6 1.3s-2.1.5-3.3.5-2.3-.1-3.2-.3-1.8-.4-2.6-.7c.1-.5.2-1 .3-1.6 0-.5.2-1 .4-1.5zM148 16.3c.4-.1.7-.1 1.1-.1h2.1c.4 0 .7.1 1 .1l5.4 16.3 5.4-16.3c.3-.1.6-.1 1-.1h2c.4 0 .7.1 1.1.1l-7.7 19.8c-.3.1-.7.1-1 .1h-1.8c-.3 0-.6-.1-.9-.1L148 16.3zM181.4 23.1c0-1.5-.4-2.6-1.2-3.2s-1.9-.9-3.4-.9c-.9 0-1.7.1-2.5.2s-1.5.3-2.3.6c-.5-.8-.7-1.9-.7-3 .9-.3 1.8-.5 2.9-.7s2.1-.2 3-.2c2.6 0 4.5.6 5.9 1.8 1.3 1.2 2 3 2 5.6v12.4c-.9.2-2 .4-3.3.6-1.3.2-2.6.3-3.9.3-1.3 0-2.4-.1-3.4-.3s-1.9-.6-2.6-1.1c-.7-.5-1.3-1.2-1.6-2-.4-.8-.6-1.8-.6-2.9s.2-2.1.7-2.9c.4-.8 1.1-1.5 1.8-2.1.8-.6 1.7-1 2.7-1.2 1-.3 2.1-.4 3.2-.4.8 0 1.5 0 2 .1.5 0 1 .1 1.3.1v-.8zm0 3.7c-.4-.1-.9-.1-1.5-.2s-1.1-.1-1.5-.1c-1.6 0-2.8.3-3.6.9s-1.3 1.5-1.3 2.7c0 .8.1 1.4.4 1.8.3.4.6.8 1.1 1 .4.2.9.4 1.4.4.5.1 1 .1 1.5.1.6 0 1.2 0 1.8-.1s1.2-.2 1.7-.3v-6.2zM202.7 27.2c.1 2.2.6 3.7 1.7 4.7s2.6 1.5 4.7 1.5c1.8 0 3.6-.3 5.2-1 .2.4.4.9.5 1.4.1.6.2 1.1.2 1.6-.8.4-1.8.6-2.8.8s-2.1.3-3.4.3c-1.8 0-3.3-.3-4.6-.8s-2.3-1.2-3.2-2.1c-.8-.9-1.4-2-1.8-3.2-.4-1.2-.6-2.6-.6-4.1s.2-2.8.6-4.1c.4-1.3.9-2.4 1.7-3.3s1.7-1.7 2.9-2.2c1.2-.6 2.5-.8 4.1-.8 1.4 0 2.6.2 3.6.7s1.9 1.1 2.6 1.9c.7.8 1.2 1.8 1.6 2.9.4 1.1.5 2.3.5 3.6v1.1c0 .4-.1.7-.1 1h-13.4v.1zm9.8-2.9c0-.7-.1-1.4-.3-2.1s-.5-1.2-.8-1.7c-.4-.5-.8-.9-1.4-1.2-.6-.3-1.3-.4-2.1-.4-1.6 0-2.8.5-3.6 1.4-.8 1-1.3 2.3-1.5 4h9.7zM192.8 7.7H191c-.3 0-.7.1-.9.1v28.3c.3.1.6.1.9.1h1.8c.3 0 .7-.1.9-.1V7.8c-.3 0-.6 0-.9-.1zM120 45.6c-.5.1-1.1.1-1.8.1h-.9c-.4 0-.7 0-1.1-.1l3.3-10-8.9-19.3c.3-.1.7-.1 1-.1h2.1c.4 0 .7 0 1 .1l6.3 14.4 4.4-14.4c.5-.1 1.1-.1 1.8-.1h.9c.4 0 .7 0 1.1.1L120 45.6z"/></svg>